%TF.GenerationSoftware,KiCad,Pcbnew,8.0.6*%
%TF.CreationDate,2025-07-13T00:12:13+05:30*%
%TF.ProjectId,Plant,506c616e-742e-46b6-9963-61645f706362,rev?*%
%TF.SameCoordinates,Original*%
%TF.FileFunction,Legend,Top*%
%TF.FilePolarity,Positive*%
%FSLAX46Y46*%
G04 Gerber Fmt 4.6, Leading zero omitted, Abs format (unit mm)*
G04 Created by KiCad (PCBNEW 8.0.6) date 2025-07-13 00:12:13*
%MOMM*%
%LPD*%
G01*
G04 APERTURE LIST*
%ADD10C,0.150000*%
%ADD11C,0.120000*%
G04 APERTURE END LIST*
D10*
X116546333Y-94663419D02*
X116213000Y-94187228D01*
X115974905Y-94663419D02*
X115974905Y-93663419D01*
X115974905Y-93663419D02*
X116355857Y-93663419D01*
X116355857Y-93663419D02*
X116451095Y-93711038D01*
X116451095Y-93711038D02*
X116498714Y-93758657D01*
X116498714Y-93758657D02*
X116546333Y-93853895D01*
X116546333Y-93853895D02*
X116546333Y-93996752D01*
X116546333Y-93996752D02*
X116498714Y-94091990D01*
X116498714Y-94091990D02*
X116451095Y-94139609D01*
X116451095Y-94139609D02*
X116355857Y-94187228D01*
X116355857Y-94187228D02*
X115974905Y-94187228D01*
X117498714Y-94663419D02*
X116927286Y-94663419D01*
X117213000Y-94663419D02*
X117213000Y-93663419D01*
X117213000Y-93663419D02*
X117117762Y-93806276D01*
X117117762Y-93806276D02*
X117022524Y-93901514D01*
X117022524Y-93901514D02*
X116927286Y-93949133D01*
X125664933Y-91012180D02*
X125617314Y-91059800D01*
X125617314Y-91059800D02*
X125474457Y-91107419D01*
X125474457Y-91107419D02*
X125379219Y-91107419D01*
X125379219Y-91107419D02*
X125236362Y-91059800D01*
X125236362Y-91059800D02*
X125141124Y-90964561D01*
X125141124Y-90964561D02*
X125093505Y-90869323D01*
X125093505Y-90869323D02*
X125045886Y-90678847D01*
X125045886Y-90678847D02*
X125045886Y-90535990D01*
X125045886Y-90535990D02*
X125093505Y-90345514D01*
X125093505Y-90345514D02*
X125141124Y-90250276D01*
X125141124Y-90250276D02*
X125236362Y-90155038D01*
X125236362Y-90155038D02*
X125379219Y-90107419D01*
X125379219Y-90107419D02*
X125474457Y-90107419D01*
X125474457Y-90107419D02*
X125617314Y-90155038D01*
X125617314Y-90155038D02*
X125664933Y-90202657D01*
X126617314Y-91107419D02*
X126045886Y-91107419D01*
X126331600Y-91107419D02*
X126331600Y-90107419D01*
X126331600Y-90107419D02*
X126236362Y-90250276D01*
X126236362Y-90250276D02*
X126141124Y-90345514D01*
X126141124Y-90345514D02*
X126045886Y-90393133D01*
X142033666Y-102096219D02*
X142033666Y-102810504D01*
X142033666Y-102810504D02*
X141986047Y-102953361D01*
X141986047Y-102953361D02*
X141890809Y-103048600D01*
X141890809Y-103048600D02*
X141747952Y-103096219D01*
X141747952Y-103096219D02*
X141652714Y-103096219D01*
X142414619Y-102096219D02*
X143033666Y-102096219D01*
X143033666Y-102096219D02*
X142700333Y-102477171D01*
X142700333Y-102477171D02*
X142843190Y-102477171D01*
X142843190Y-102477171D02*
X142938428Y-102524790D01*
X142938428Y-102524790D02*
X142986047Y-102572409D01*
X142986047Y-102572409D02*
X143033666Y-102667647D01*
X143033666Y-102667647D02*
X143033666Y-102905742D01*
X143033666Y-102905742D02*
X142986047Y-103000980D01*
X142986047Y-103000980D02*
X142938428Y-103048600D01*
X142938428Y-103048600D02*
X142843190Y-103096219D01*
X142843190Y-103096219D02*
X142557476Y-103096219D01*
X142557476Y-103096219D02*
X142462238Y-103048600D01*
X142462238Y-103048600D02*
X142414619Y-103000980D01*
X111960819Y-84977266D02*
X111484628Y-85310599D01*
X111960819Y-85548694D02*
X110960819Y-85548694D01*
X110960819Y-85548694D02*
X110960819Y-85167742D01*
X110960819Y-85167742D02*
X111008438Y-85072504D01*
X111008438Y-85072504D02*
X111056057Y-85024885D01*
X111056057Y-85024885D02*
X111151295Y-84977266D01*
X111151295Y-84977266D02*
X111294152Y-84977266D01*
X111294152Y-84977266D02*
X111389390Y-85024885D01*
X111389390Y-85024885D02*
X111437009Y-85072504D01*
X111437009Y-85072504D02*
X111484628Y-85167742D01*
X111484628Y-85167742D02*
X111484628Y-85548694D01*
X111056057Y-84596313D02*
X111008438Y-84548694D01*
X111008438Y-84548694D02*
X110960819Y-84453456D01*
X110960819Y-84453456D02*
X110960819Y-84215361D01*
X110960819Y-84215361D02*
X111008438Y-84120123D01*
X111008438Y-84120123D02*
X111056057Y-84072504D01*
X111056057Y-84072504D02*
X111151295Y-84024885D01*
X111151295Y-84024885D02*
X111246533Y-84024885D01*
X111246533Y-84024885D02*
X111389390Y-84072504D01*
X111389390Y-84072504D02*
X111960819Y-84643932D01*
X111960819Y-84643932D02*
X111960819Y-84024885D01*
X122997933Y-91037580D02*
X122950314Y-91085200D01*
X122950314Y-91085200D02*
X122807457Y-91132819D01*
X122807457Y-91132819D02*
X122712219Y-91132819D01*
X122712219Y-91132819D02*
X122569362Y-91085200D01*
X122569362Y-91085200D02*
X122474124Y-90989961D01*
X122474124Y-90989961D02*
X122426505Y-90894723D01*
X122426505Y-90894723D02*
X122378886Y-90704247D01*
X122378886Y-90704247D02*
X122378886Y-90561390D01*
X122378886Y-90561390D02*
X122426505Y-90370914D01*
X122426505Y-90370914D02*
X122474124Y-90275676D01*
X122474124Y-90275676D02*
X122569362Y-90180438D01*
X122569362Y-90180438D02*
X122712219Y-90132819D01*
X122712219Y-90132819D02*
X122807457Y-90132819D01*
X122807457Y-90132819D02*
X122950314Y-90180438D01*
X122950314Y-90180438D02*
X122997933Y-90228057D01*
X123378886Y-90228057D02*
X123426505Y-90180438D01*
X123426505Y-90180438D02*
X123521743Y-90132819D01*
X123521743Y-90132819D02*
X123759838Y-90132819D01*
X123759838Y-90132819D02*
X123855076Y-90180438D01*
X123855076Y-90180438D02*
X123902695Y-90228057D01*
X123902695Y-90228057D02*
X123950314Y-90323295D01*
X123950314Y-90323295D02*
X123950314Y-90418533D01*
X123950314Y-90418533D02*
X123902695Y-90561390D01*
X123902695Y-90561390D02*
X123331267Y-91132819D01*
X123331267Y-91132819D02*
X123950314Y-91132819D01*
D11*
X115138276Y-70125055D02*
X115138276Y-70772674D01*
X115138276Y-70772674D02*
X115176371Y-70848864D01*
X115176371Y-70848864D02*
X115214466Y-70886960D01*
X115214466Y-70886960D02*
X115290657Y-70925055D01*
X115290657Y-70925055D02*
X115443038Y-70925055D01*
X115443038Y-70925055D02*
X115519228Y-70886960D01*
X115519228Y-70886960D02*
X115557323Y-70848864D01*
X115557323Y-70848864D02*
X115595419Y-70772674D01*
X115595419Y-70772674D02*
X115595419Y-70125055D01*
X116319228Y-70125055D02*
X116166847Y-70125055D01*
X116166847Y-70125055D02*
X116090656Y-70163150D01*
X116090656Y-70163150D02*
X116052561Y-70201245D01*
X116052561Y-70201245D02*
X115976371Y-70315531D01*
X115976371Y-70315531D02*
X115938275Y-70467912D01*
X115938275Y-70467912D02*
X115938275Y-70772674D01*
X115938275Y-70772674D02*
X115976371Y-70848864D01*
X115976371Y-70848864D02*
X116014466Y-70886960D01*
X116014466Y-70886960D02*
X116090656Y-70925055D01*
X116090656Y-70925055D02*
X116243037Y-70925055D01*
X116243037Y-70925055D02*
X116319228Y-70886960D01*
X116319228Y-70886960D02*
X116357323Y-70848864D01*
X116357323Y-70848864D02*
X116395418Y-70772674D01*
X116395418Y-70772674D02*
X116395418Y-70582198D01*
X116395418Y-70582198D02*
X116357323Y-70506007D01*
X116357323Y-70506007D02*
X116319228Y-70467912D01*
X116319228Y-70467912D02*
X116243037Y-70429817D01*
X116243037Y-70429817D02*
X116090656Y-70429817D01*
X116090656Y-70429817D02*
X116014466Y-70467912D01*
X116014466Y-70467912D02*
X115976371Y-70506007D01*
X115976371Y-70506007D02*
X115938275Y-70582198D01*
D10*
X148209095Y-75273819D02*
X148209095Y-76083342D01*
X148209095Y-76083342D02*
X148256714Y-76178580D01*
X148256714Y-76178580D02*
X148304333Y-76226200D01*
X148304333Y-76226200D02*
X148399571Y-76273819D01*
X148399571Y-76273819D02*
X148590047Y-76273819D01*
X148590047Y-76273819D02*
X148685285Y-76226200D01*
X148685285Y-76226200D02*
X148732904Y-76178580D01*
X148732904Y-76178580D02*
X148780523Y-76083342D01*
X148780523Y-76083342D02*
X148780523Y-75273819D01*
X149161476Y-75273819D02*
X149780523Y-75273819D01*
X149780523Y-75273819D02*
X149447190Y-75654771D01*
X149447190Y-75654771D02*
X149590047Y-75654771D01*
X149590047Y-75654771D02*
X149685285Y-75702390D01*
X149685285Y-75702390D02*
X149732904Y-75750009D01*
X149732904Y-75750009D02*
X149780523Y-75845247D01*
X149780523Y-75845247D02*
X149780523Y-76083342D01*
X149780523Y-76083342D02*
X149732904Y-76178580D01*
X149732904Y-76178580D02*
X149685285Y-76226200D01*
X149685285Y-76226200D02*
X149590047Y-76273819D01*
X149590047Y-76273819D02*
X149304333Y-76273819D01*
X149304333Y-76273819D02*
X149209095Y-76226200D01*
X149209095Y-76226200D02*
X149161476Y-76178580D01*
X147901066Y-87313419D02*
X147901066Y-88027704D01*
X147901066Y-88027704D02*
X147853447Y-88170561D01*
X147853447Y-88170561D02*
X147758209Y-88265800D01*
X147758209Y-88265800D02*
X147615352Y-88313419D01*
X147615352Y-88313419D02*
X147520114Y-88313419D01*
X148329638Y-87408657D02*
X148377257Y-87361038D01*
X148377257Y-87361038D02*
X148472495Y-87313419D01*
X148472495Y-87313419D02*
X148710590Y-87313419D01*
X148710590Y-87313419D02*
X148805828Y-87361038D01*
X148805828Y-87361038D02*
X148853447Y-87408657D01*
X148853447Y-87408657D02*
X148901066Y-87503895D01*
X148901066Y-87503895D02*
X148901066Y-87599133D01*
X148901066Y-87599133D02*
X148853447Y-87741990D01*
X148853447Y-87741990D02*
X148282019Y-88313419D01*
X148282019Y-88313419D02*
X148901066Y-88313419D01*
X146404105Y-98498819D02*
X146404105Y-97498819D01*
X146404105Y-97498819D02*
X146642200Y-97498819D01*
X146642200Y-97498819D02*
X146785057Y-97546438D01*
X146785057Y-97546438D02*
X146880295Y-97641676D01*
X146880295Y-97641676D02*
X146927914Y-97736914D01*
X146927914Y-97736914D02*
X146975533Y-97927390D01*
X146975533Y-97927390D02*
X146975533Y-98070247D01*
X146975533Y-98070247D02*
X146927914Y-98260723D01*
X146927914Y-98260723D02*
X146880295Y-98355961D01*
X146880295Y-98355961D02*
X146785057Y-98451200D01*
X146785057Y-98451200D02*
X146642200Y-98498819D01*
X146642200Y-98498819D02*
X146404105Y-98498819D01*
X147927914Y-98498819D02*
X147356486Y-98498819D01*
X147642200Y-98498819D02*
X147642200Y-97498819D01*
X147642200Y-97498819D02*
X147546962Y-97641676D01*
X147546962Y-97641676D02*
X147451724Y-97736914D01*
X147451724Y-97736914D02*
X147356486Y-97784533D01*
X138379295Y-85535419D02*
X138379295Y-86344942D01*
X138379295Y-86344942D02*
X138426914Y-86440180D01*
X138426914Y-86440180D02*
X138474533Y-86487800D01*
X138474533Y-86487800D02*
X138569771Y-86535419D01*
X138569771Y-86535419D02*
X138760247Y-86535419D01*
X138760247Y-86535419D02*
X138855485Y-86487800D01*
X138855485Y-86487800D02*
X138903104Y-86440180D01*
X138903104Y-86440180D02*
X138950723Y-86344942D01*
X138950723Y-86344942D02*
X138950723Y-85535419D01*
X139855485Y-85868752D02*
X139855485Y-86535419D01*
X139617390Y-85487800D02*
X139379295Y-86202085D01*
X139379295Y-86202085D02*
X139998342Y-86202085D01*
X121764466Y-98743419D02*
X121764466Y-99457704D01*
X121764466Y-99457704D02*
X121716847Y-99600561D01*
X121716847Y-99600561D02*
X121621609Y-99695800D01*
X121621609Y-99695800D02*
X121478752Y-99743419D01*
X121478752Y-99743419D02*
X121383514Y-99743419D01*
X122764466Y-99743419D02*
X122193038Y-99743419D01*
X122478752Y-99743419D02*
X122478752Y-98743419D01*
X122478752Y-98743419D02*
X122383514Y-98886276D01*
X122383514Y-98886276D02*
X122288276Y-98981514D01*
X122288276Y-98981514D02*
X122193038Y-99029133D01*
D11*
%TO.C,C1*%
X124860800Y-86970200D02*
X124860800Y-88228200D01*
X126700800Y-86970200D02*
X126700800Y-88228200D01*
%TO.C,J3*%
X127606200Y-92123800D02*
X142106200Y-92123800D01*
X127606200Y-101323800D02*
X127606200Y-92123800D01*
X136206200Y-101323800D02*
X127606200Y-101323800D01*
X142106200Y-92123800D02*
X142106200Y-94123800D01*
X142106200Y-99323800D02*
X142106200Y-101323800D01*
X142106200Y-101323800D02*
X140806200Y-101323800D01*
X142406200Y-91823800D02*
X141106200Y-91823800D01*
X142406200Y-93523800D02*
X142406200Y-91823800D01*
%TO.C,R2*%
X112668600Y-82760400D02*
X112668600Y-88760400D01*
X121468600Y-82760400D02*
X121468600Y-88760400D01*
X112668600Y-82760400D02*
G75*
G02*
X121446160Y-82727750I4400000J-3000000D01*
G01*
X121468600Y-88760400D02*
G75*
G02*
X112691040Y-88793050I-4400000J3000000D01*
G01*
%TO.C,C2*%
X122473200Y-88152000D02*
X122473200Y-86894000D01*
X124313200Y-88152000D02*
X124313200Y-86894000D01*
%TO.C,U5*%
X130535400Y-85745000D02*
X131260400Y-85745000D01*
X130535400Y-86470000D02*
X130535400Y-85745000D01*
X130535400Y-90240000D02*
X130535400Y-90665000D01*
X131260400Y-90965000D02*
X130775400Y-90965000D01*
X135755400Y-85745000D02*
X135030400Y-85745000D01*
X135755400Y-86470000D02*
X135755400Y-85745000D01*
X135755400Y-90240000D02*
X135755400Y-90965000D01*
X135755400Y-90965000D02*
X135030400Y-90965000D01*
X130535400Y-90965000D02*
X130205400Y-91205000D01*
X130205400Y-90725000D01*
X130535400Y-90965000D01*
G36*
X130535400Y-90965000D02*
G01*
X130205400Y-91205000D01*
X130205400Y-90725000D01*
X130535400Y-90965000D01*
G37*
%TO.C,U6*%
X114433900Y-73918200D02*
X114433900Y-77678200D01*
X114433900Y-77678200D02*
X115693900Y-77678200D01*
X121253900Y-73918200D02*
X121253900Y-77678200D01*
X121253900Y-77678200D02*
X119993900Y-77678200D01*
X121483900Y-72878200D02*
X121153900Y-72638200D01*
X121483900Y-72398200D01*
X121483900Y-72878200D01*
G36*
X121483900Y-72878200D02*
G01*
X121153900Y-72638200D01*
X121483900Y-72398200D01*
X121483900Y-72878200D01*
G37*
%TO.C,U3*%
X141213600Y-71136200D02*
X141213600Y-73136200D01*
X141213600Y-71136200D02*
X142823600Y-71136200D01*
X141493600Y-83676200D02*
X141493600Y-71426200D01*
X141503600Y-71416200D02*
X147243600Y-71416200D01*
X147253600Y-71416200D02*
X147253600Y-83676200D01*
X147253600Y-83676200D02*
X141493600Y-83676200D01*
%TO.C,J2*%
X142796200Y-86630800D02*
X143481200Y-86630800D01*
X142796200Y-87315800D02*
X142796200Y-86630800D01*
X143949415Y-88815800D02*
X144791200Y-88815800D01*
X144166200Y-86755800D02*
X144791200Y-86755800D01*
X144166200Y-87815800D02*
X144791200Y-87815800D01*
X144791200Y-86755800D02*
X144791200Y-89875800D01*
X144791200Y-87105800D02*
X146791200Y-87105800D01*
X144791200Y-87165800D02*
X146791200Y-87165800D01*
X144791200Y-87285800D02*
X146791200Y-87285800D01*
X144791200Y-87405800D02*
X146791200Y-87405800D01*
X144791200Y-88105800D02*
X146791200Y-88105800D01*
X144791200Y-89105800D02*
X146791200Y-89105800D01*
X144791200Y-89875800D02*
X143875693Y-89875800D01*
X146791200Y-87105800D02*
X146791200Y-87525800D01*
X146791200Y-87525800D02*
X144791200Y-87525800D01*
X146791200Y-88105800D02*
X146791200Y-88525800D01*
X146791200Y-88525800D02*
X144791200Y-88525800D01*
X146791200Y-89105800D02*
X146791200Y-89525800D01*
X146791200Y-89525800D02*
X144791200Y-89525800D01*
%TO.C,D1*%
X143302000Y-93396800D02*
X143302000Y-96696800D01*
X143302000Y-93396800D02*
X148812000Y-93396800D01*
X143302000Y-96696800D02*
X148812000Y-96696800D01*
%TO.C,U4*%
X122247600Y-64788600D02*
X122247600Y-70598600D01*
X122247600Y-64788600D02*
X140467600Y-64788600D01*
X122247600Y-84708600D02*
X122247600Y-85008600D01*
X122247600Y-85008600D02*
X140467600Y-85008600D01*
X140467600Y-64788600D02*
X140467600Y-71288600D01*
X140467600Y-84708600D02*
X140467600Y-85008600D01*
X122257600Y-71298600D02*
X121757600Y-71298600D01*
X122257600Y-70798600D01*
X122257600Y-71298600D01*
G36*
X122257600Y-71298600D02*
G01*
X121757600Y-71298600D01*
X122257600Y-70798600D01*
X122257600Y-71298600D01*
G37*
%TO.C,J1*%
X118435800Y-92630800D02*
X118435800Y-92880800D01*
X118435800Y-95180800D02*
X118435800Y-97030800D01*
X118435800Y-97030800D02*
X118885800Y-97030800D01*
X124035800Y-97580800D02*
X123585800Y-97580800D01*
X124035800Y-97580800D02*
X124035800Y-97130800D01*
X126235800Y-92630800D02*
X126235800Y-92880800D01*
X126235800Y-95180800D02*
X126235800Y-97030800D01*
X126235800Y-97030800D02*
X125785800Y-97030800D01*
%TD*%
M02*
