%TF.GenerationSoftware,KiCad,Pcbnew,8.0.6*%
%TF.CreationDate,2025-07-13T00:12:13+05:30*%
%TF.ProjectId,Plant,506c616e-742e-46b6-9963-61645f706362,rev?*%
%TF.SameCoordinates,Original*%
%TF.FileFunction,Copper,L2,Bot*%
%TF.FilePolarity,Positive*%
%FSLAX46Y46*%
G04 Gerber Fmt 4.6, Leading zero omitted, Abs format (unit mm)*
G04 Created by KiCad (PCBNEW 8.0.6) date 2025-07-13 00:12:13*
%MOMM*%
%LPD*%
G01*
G04 APERTURE LIST*
%TA.AperFunction,ComponentPad*%
%ADD10C,1.600000*%
%TD*%
%TA.AperFunction,ComponentPad*%
%ADD11R,2.000000X4.600000*%
%TD*%
%TA.AperFunction,ComponentPad*%
%ADD12O,2.000000X4.200000*%
%TD*%
%TA.AperFunction,ComponentPad*%
%ADD13O,4.200000X2.000000*%
%TD*%
%TA.AperFunction,ComponentPad*%
%ADD14R,1.500000X1.500000*%
%TD*%
%TA.AperFunction,ComponentPad*%
%ADD15C,1.500000*%
%TD*%
%TA.AperFunction,ComponentPad*%
%ADD16R,0.850000X0.850000*%
%TD*%
%TA.AperFunction,ComponentPad*%
%ADD17O,0.850000X0.850000*%
%TD*%
%TA.AperFunction,HeatsinkPad*%
%ADD18C,0.600000*%
%TD*%
%TA.AperFunction,ComponentPad*%
%ADD19O,1.200000X1.900000*%
%TD*%
%TA.AperFunction,ComponentPad*%
%ADD20C,1.450000*%
%TD*%
%TA.AperFunction,ViaPad*%
%ADD21C,0.600000*%
%TD*%
%TA.AperFunction,Conductor*%
%ADD22C,0.200000*%
%TD*%
G04 APERTURE END LIST*
D10*
%TO.P,C1,1*%
%TO.N,Net-(U4-IO9)*%
X125780800Y-86349200D03*
%TO.P,C1,2*%
%TO.N,Net-(U5-~{RTS})*%
X125780800Y-88849200D03*
%TD*%
D11*
%TO.P,J3,1*%
%TO.N,Net-(D1-A)*%
X141406200Y-96723800D03*
D12*
%TO.P,J3,2*%
%TO.N,Net-(J1-GND)*%
X135106200Y-96723800D03*
D13*
%TO.P,J3,3*%
%TO.N,N/C*%
X138506200Y-101523800D03*
%TD*%
D10*
%TO.P,R2,1*%
%TO.N,Net-(U4-IO1)*%
X117068600Y-81960400D03*
%TO.P,R2,2*%
%TO.N,Net-(R1-Pad1)*%
X117068600Y-89560400D03*
%TD*%
%TO.P,C2,1*%
%TO.N,Net-(U5-~{DTR})*%
X123393200Y-88773000D03*
%TO.P,C2,2*%
%TO.N,Net-(U4-EN)*%
X123393200Y-86273000D03*
%TD*%
D14*
%TO.P,U3,1,VDD*%
%TO.N,Net-(J2-Pin_1)*%
X144373600Y-73736200D03*
D15*
%TO.P,U3,2,DATA*%
%TO.N,Net-(U3-DATA)*%
X144373600Y-76276200D03*
%TO.P,U3,3,NC*%
%TO.N,unconnected-(U3-NC-Pad3)*%
X144373600Y-78816200D03*
%TO.P,U3,4,GND*%
%TO.N,Net-(J1-GND)*%
X144373600Y-81356200D03*
%TD*%
D16*
%TO.P,J2,1,Pin_1*%
%TO.N,Net-(J2-Pin_1)*%
X143481200Y-87315800D03*
D17*
%TO.P,J2,2,Pin_2*%
%TO.N,Net-(J2-Pin_2)*%
X143481200Y-88315800D03*
%TO.P,J2,3,Pin_3*%
%TO.N,Net-(J1-GND)*%
X143481200Y-89315800D03*
%TD*%
D18*
%TO.P,U4,19,GND*%
%TO.N,Net-(J1-GND)*%
X131217600Y-77648600D03*
X131217600Y-78748600D03*
X131767600Y-77098600D03*
X131767600Y-78198600D03*
X131767600Y-79298600D03*
X132317600Y-77648600D03*
X132317600Y-78748600D03*
X132867600Y-77098600D03*
X132867600Y-78198600D03*
X132867600Y-79298600D03*
X133417600Y-77648600D03*
X133417600Y-78748600D03*
%TD*%
D19*
%TO.P,J1,6,Shield*%
%TO.N,Net-(J1-GND)*%
X125835800Y-94030800D03*
D20*
X124835800Y-96730800D03*
X119835800Y-96730800D03*
D19*
X118835800Y-94030800D03*
%TD*%
D21*
%TO.N,Net-(U4-EN)*%
X122631200Y-73482200D03*
%TO.N,Net-(J2-Pin_1)*%
X118084600Y-72440800D03*
X117830600Y-78917800D03*
X122607600Y-71998600D03*
%TO.N,Net-(J1-GND)*%
X127584200Y-80619600D03*
X120985798Y-96730800D03*
X121361200Y-94386400D03*
X120116600Y-72618600D03*
X122607600Y-83998600D03*
X129353558Y-78850242D03*
%TO.N,Net-(J2-Pin_2)*%
X140208000Y-72148600D03*
%TO.N,Net-(U4-IO20{slash}RXD)*%
X128857237Y-88937923D03*
X140107600Y-82498600D03*
%TO.N,Net-(U4-IO21{slash}TXD)*%
X140107600Y-80998600D03*
X128258094Y-88407799D03*
%TO.N,Net-(D1-K)*%
X123686887Y-97155800D03*
X138328400Y-89680000D03*
X144881600Y-95072200D03*
%TD*%
D22*
%TO.N,Net-(U4-EN)*%
X122631200Y-73482200D02*
X122631200Y-73837800D01*
X123393200Y-74599800D02*
X123393200Y-86273000D01*
X122631200Y-73837800D02*
X123393200Y-74599800D01*
%TO.N,Net-(J2-Pin_1)*%
X118084600Y-78359000D02*
X118084600Y-72440800D01*
X118999000Y-71526400D02*
X122135400Y-71526400D01*
X118084600Y-72440800D02*
X118999000Y-71526400D01*
X122135400Y-71526400D02*
X122607600Y-71998600D01*
X117830600Y-78917800D02*
X117830600Y-78613000D01*
X117830600Y-78613000D02*
X118084600Y-78359000D01*
%TO.N,Net-(J1-GND)*%
X120116600Y-72618600D02*
X120192800Y-72694800D01*
X123848835Y-87373000D02*
X122937565Y-87373000D01*
X120192800Y-72694800D02*
X120192800Y-81583800D01*
X120192800Y-81583800D02*
X122607600Y-83998600D01*
X119835800Y-96730800D02*
X120985798Y-96730800D01*
X124493200Y-83710600D02*
X124493200Y-86728635D01*
X121361200Y-94386400D02*
X121361200Y-96355398D01*
X129353558Y-78850242D02*
X127584200Y-80619600D01*
X122937565Y-87373000D02*
X122293200Y-86728635D01*
X124493200Y-86728635D02*
X123848835Y-87373000D01*
X127584200Y-80619600D02*
X124493200Y-83710600D01*
X122293200Y-84313000D02*
X122607600Y-83998600D01*
X121361200Y-96355398D02*
X120985798Y-96730800D01*
X122293200Y-86728635D02*
X122293200Y-84313000D01*
%TO.N,Net-(J2-Pin_2)*%
X142756200Y-88191840D02*
X142880160Y-88315800D01*
X140208000Y-72148600D02*
X140208000Y-80250471D01*
X142880160Y-88315800D02*
X143481200Y-88315800D01*
X142756200Y-82798671D02*
X142756200Y-88191840D01*
X140208000Y-80250471D02*
X142756200Y-82798671D01*
%TO.N,Net-(U4-IO20{slash}RXD)*%
X133668277Y-88937923D02*
X140107600Y-82498600D01*
X128857237Y-88937923D02*
X133668277Y-88937923D01*
%TO.N,Net-(U4-IO21{slash}TXD)*%
X128258094Y-88407799D02*
X128527893Y-88138000D01*
X132968200Y-88138000D02*
X140107600Y-80998600D01*
X128527893Y-88138000D02*
X132968200Y-88138000D01*
%TO.N,Net-(D1-K)*%
X139489400Y-89680000D02*
X138328400Y-89680000D01*
X138328400Y-89680000D02*
X130252600Y-97755800D01*
X144881600Y-95072200D02*
X139489400Y-89680000D01*
X124286887Y-97755800D02*
X123686887Y-97155800D01*
X130252600Y-97755800D02*
X124286887Y-97755800D01*
%TD*%
M02*
