%TF.GenerationSoftware,KiCad,Pcbnew,8.0.6*%
%TF.CreationDate,2025-07-13T00:12:13+05:30*%
%TF.ProjectId,Plant,506c616e-742e-46b6-9963-61645f706362,rev?*%
%TF.SameCoordinates,Original*%
%TF.FileFunction,Copper,L1,Top*%
%TF.FilePolarity,Positive*%
%FSLAX46Y46*%
G04 Gerber Fmt 4.6, Leading zero omitted, Abs format (unit mm)*
G04 Created by KiCad (PCBNEW 8.0.6) date 2025-07-13 00:12:13*
%MOMM*%
%LPD*%
G01*
G04 APERTURE LIST*
G04 Aperture macros list*
%AMRoundRect*
0 Rectangle with rounded corners*
0 $1 Rounding radius*
0 $2 $3 $4 $5 $6 $7 $8 $9 X,Y pos of 4 corners*
0 Add a 4 corners polygon primitive as box body*
4,1,4,$2,$3,$4,$5,$6,$7,$8,$9,$2,$3,0*
0 Add four circle primitives for the rounded corners*
1,1,$1+$1,$2,$3*
1,1,$1+$1,$4,$5*
1,1,$1+$1,$6,$7*
1,1,$1+$1,$8,$9*
0 Add four rect primitives between the rounded corners*
20,1,$1+$1,$2,$3,$4,$5,0*
20,1,$1+$1,$4,$5,$6,$7,0*
20,1,$1+$1,$6,$7,$8,$9,0*
20,1,$1+$1,$8,$9,$2,$3,0*%
G04 Aperture macros list end*
%TA.AperFunction,SMDPad,CuDef*%
%ADD10RoundRect,0.100000X-0.130000X-0.100000X0.130000X-0.100000X0.130000X0.100000X-0.130000X0.100000X0*%
%TD*%
%TA.AperFunction,ComponentPad*%
%ADD11C,1.600000*%
%TD*%
%TA.AperFunction,ComponentPad*%
%ADD12R,2.000000X4.600000*%
%TD*%
%TA.AperFunction,ComponentPad*%
%ADD13O,2.000000X4.200000*%
%TD*%
%TA.AperFunction,ComponentPad*%
%ADD14O,4.200000X2.000000*%
%TD*%
%TA.AperFunction,SMDPad,CuDef*%
%ADD15RoundRect,0.062500X0.062500X-0.337500X0.062500X0.337500X-0.062500X0.337500X-0.062500X-0.337500X0*%
%TD*%
%TA.AperFunction,SMDPad,CuDef*%
%ADD16RoundRect,0.062500X0.337500X-0.062500X0.337500X0.062500X-0.337500X0.062500X-0.337500X-0.062500X0*%
%TD*%
%TA.AperFunction,HeatsinkPad*%
%ADD17R,3.350000X3.350000*%
%TD*%
%TA.AperFunction,SMDPad,CuDef*%
%ADD18RoundRect,0.375000X-0.375000X0.625000X-0.375000X-0.625000X0.375000X-0.625000X0.375000X0.625000X0*%
%TD*%
%TA.AperFunction,SMDPad,CuDef*%
%ADD19RoundRect,0.500000X-1.400000X0.500000X-1.400000X-0.500000X1.400000X-0.500000X1.400000X0.500000X0*%
%TD*%
%TA.AperFunction,ComponentPad*%
%ADD20R,1.500000X1.500000*%
%TD*%
%TA.AperFunction,ComponentPad*%
%ADD21C,1.500000*%
%TD*%
%TA.AperFunction,ComponentPad*%
%ADD22R,0.850000X0.850000*%
%TD*%
%TA.AperFunction,ComponentPad*%
%ADD23O,0.850000X0.850000*%
%TD*%
%TA.AperFunction,SMDPad,CuDef*%
%ADD24RoundRect,0.250000X-1.000000X-0.650000X1.000000X-0.650000X1.000000X0.650000X-1.000000X0.650000X0*%
%TD*%
%TA.AperFunction,SMDPad,CuDef*%
%ADD25R,1.500000X0.900000*%
%TD*%
%TA.AperFunction,HeatsinkPad*%
%ADD26C,0.600000*%
%TD*%
%TA.AperFunction,SMDPad,CuDef*%
%ADD27R,2.900000X2.900000*%
%TD*%
%TA.AperFunction,SMDPad,CuDef*%
%ADD28R,0.400000X1.350000*%
%TD*%
%TA.AperFunction,ComponentPad*%
%ADD29O,1.200000X1.900000*%
%TD*%
%TA.AperFunction,SMDPad,CuDef*%
%ADD30R,1.200000X1.900000*%
%TD*%
%TA.AperFunction,ComponentPad*%
%ADD31C,1.450000*%
%TD*%
%TA.AperFunction,SMDPad,CuDef*%
%ADD32R,1.500000X1.900000*%
%TD*%
%TA.AperFunction,ViaPad*%
%ADD33C,0.600000*%
%TD*%
%TA.AperFunction,Conductor*%
%ADD34C,0.200000*%
%TD*%
G04 APERTURE END LIST*
D10*
%TO.P,R1,1*%
%TO.N,Net-(R1-Pad1)*%
X116687200Y-92862400D03*
%TO.P,R1,2*%
%TO.N,Net-(J1-GND)*%
X117327200Y-92862400D03*
%TD*%
D11*
%TO.P,C1,1*%
%TO.N,Net-(U4-IO9)*%
X125780800Y-86349200D03*
%TO.P,C1,2*%
%TO.N,Net-(U5-~{RTS})*%
X125780800Y-88849200D03*
%TD*%
D12*
%TO.P,J3,1*%
%TO.N,Net-(D1-A)*%
X141406200Y-96723800D03*
D13*
%TO.P,J3,2*%
%TO.N,Net-(J1-GND)*%
X135106200Y-96723800D03*
D14*
%TO.P,J3,3*%
%TO.N,N/C*%
X138506200Y-101523800D03*
%TD*%
D11*
%TO.P,R2,1*%
%TO.N,Net-(U4-IO1)*%
X117068600Y-81960400D03*
%TO.P,R2,2*%
%TO.N,Net-(R1-Pad1)*%
X117068600Y-89560400D03*
%TD*%
%TO.P,C2,1*%
%TO.N,Net-(U5-~{DTR})*%
X123393200Y-88773000D03*
%TO.P,C2,2*%
%TO.N,Net-(U4-EN)*%
X123393200Y-86273000D03*
%TD*%
D15*
%TO.P,U5,1,~{DCD}*%
%TO.N,unconnected-(U5-~{DCD}-Pad1)*%
X131645400Y-90805000D03*
%TO.P,U5,2,~{RI}/CLK*%
%TO.N,unconnected-(U5-~{RI}{slash}CLK-Pad2)*%
X132145400Y-90805000D03*
%TO.P,U5,3,GND*%
%TO.N,Net-(J1-GND)*%
X132645400Y-90805000D03*
%TO.P,U5,4,D+*%
%TO.N,Net-(J1-D+)*%
X133145400Y-90805000D03*
%TO.P,U5,5,D-*%
%TO.N,Net-(J1-D-)*%
X133645400Y-90805000D03*
%TO.P,U5,6,VDD*%
%TO.N,unconnected-(U5-VDD-Pad6)*%
X134145400Y-90805000D03*
%TO.P,U5,7,VREGIN*%
%TO.N,unconnected-(U5-VREGIN-Pad7)*%
X134645400Y-90805000D03*
D16*
%TO.P,U5,8,VBUS*%
%TO.N,Net-(D1-K)*%
X135595400Y-89855000D03*
%TO.P,U5,9,~{RST}*%
%TO.N,unconnected-(U5-~{RST}-Pad9)*%
X135595400Y-89355000D03*
%TO.P,U5,10,NC*%
%TO.N,unconnected-(U5-NC-Pad10)*%
X135595400Y-88855000D03*
%TO.P,U5,11,~{SUSPEND}*%
%TO.N,unconnected-(U5-~{SUSPEND}-Pad11)*%
X135595400Y-88355000D03*
%TO.P,U5,12,SUSPEND*%
%TO.N,unconnected-(U5-SUSPEND-Pad12)*%
X135595400Y-87855000D03*
%TO.P,U5,13,CHREN*%
%TO.N,unconnected-(U5-CHREN-Pad13)*%
X135595400Y-87355000D03*
%TO.P,U5,14,CHR1*%
%TO.N,unconnected-(U5-CHR1-Pad14)*%
X135595400Y-86855000D03*
D15*
%TO.P,U5,15,CHR0*%
%TO.N,unconnected-(U5-CHR0-Pad15)*%
X134645400Y-85905000D03*
%TO.P,U5,16,~{WAKEUP}/GPIO.3*%
%TO.N,unconnected-(U5-~{WAKEUP}{slash}GPIO.3-Pad16)*%
X134145400Y-85905000D03*
%TO.P,U5,17,RS485/GPIO.2*%
%TO.N,unconnected-(U5-RS485{slash}GPIO.2-Pad17)*%
X133645400Y-85905000D03*
%TO.P,U5,18,~{RXT}/GPIO.1*%
%TO.N,unconnected-(U5-~{RXT}{slash}GPIO.1-Pad18)*%
X133145400Y-85905000D03*
%TO.P,U5,19,~{TXT}/GPIO.0*%
%TO.N,unconnected-(U5-~{TXT}{slash}GPIO.0-Pad19)*%
X132645400Y-85905000D03*
%TO.P,U5,20,GPIO.6*%
%TO.N,unconnected-(U5-GPIO.6-Pad20)*%
X132145400Y-85905000D03*
%TO.P,U5,21,GPIO.5*%
%TO.N,unconnected-(U5-GPIO.5-Pad21)*%
X131645400Y-85905000D03*
D16*
%TO.P,U5,22,GPIO.4*%
%TO.N,unconnected-(U5-GPIO.4-Pad22)*%
X130695400Y-86855000D03*
%TO.P,U5,23,~{CTS}*%
%TO.N,unconnected-(U5-~{CTS}-Pad23)*%
X130695400Y-87355000D03*
%TO.P,U5,24,~{RTS}*%
%TO.N,Net-(U5-~{RTS})*%
X130695400Y-87855000D03*
%TO.P,U5,25,RXD*%
%TO.N,Net-(U4-IO21{slash}TXD)*%
X130695400Y-88355000D03*
%TO.P,U5,26,TXD*%
%TO.N,Net-(U4-IO20{slash}RXD)*%
X130695400Y-88855000D03*
%TO.P,U5,27,~{DSR}*%
%TO.N,unconnected-(U5-~{DSR}-Pad27)*%
X130695400Y-89355000D03*
%TO.P,U5,28,~{DTR}*%
%TO.N,Net-(U5-~{DTR})*%
X130695400Y-89855000D03*
D17*
%TO.P,U5,29,GND*%
%TO.N,Net-(J1-GND)*%
X133145400Y-88355000D03*
%TD*%
D18*
%TO.P,U6,1,GND*%
%TO.N,Net-(J1-GND)*%
X120143900Y-72618200D03*
%TO.P,U6,2,VO*%
%TO.N,Net-(J2-Pin_1)*%
X117843900Y-72618200D03*
D19*
X117843900Y-78918200D03*
D18*
%TO.P,U6,3,VI*%
%TO.N,Net-(D1-K)*%
X115543900Y-72618200D03*
%TD*%
D20*
%TO.P,U3,1,VDD*%
%TO.N,Net-(J2-Pin_1)*%
X144373600Y-73736200D03*
D21*
%TO.P,U3,2,DATA*%
%TO.N,Net-(U3-DATA)*%
X144373600Y-76276200D03*
%TO.P,U3,3,NC*%
%TO.N,unconnected-(U3-NC-Pad3)*%
X144373600Y-78816200D03*
%TO.P,U3,4,GND*%
%TO.N,Net-(J1-GND)*%
X144373600Y-81356200D03*
%TD*%
D22*
%TO.P,J2,1,Pin_1*%
%TO.N,Net-(J2-Pin_1)*%
X143481200Y-87315800D03*
D23*
%TO.P,J2,2,Pin_2*%
%TO.N,Net-(J2-Pin_2)*%
X143481200Y-88315800D03*
%TO.P,J2,3,Pin_3*%
%TO.N,Net-(J1-GND)*%
X143481200Y-89315800D03*
%TD*%
D24*
%TO.P,D1,1,K*%
%TO.N,Net-(D1-K)*%
X144812000Y-95046800D03*
%TO.P,D1,2,A*%
%TO.N,Net-(D1-A)*%
X148812000Y-95046800D03*
%TD*%
D25*
%TO.P,U4,1,3V3*%
%TO.N,Net-(J2-Pin_1)*%
X122607600Y-71998600D03*
%TO.P,U4,2,EN*%
%TO.N,Net-(U4-EN)*%
X122607600Y-73498600D03*
%TO.P,U4,3,IO4*%
%TO.N,Net-(U3-DATA)*%
X122607600Y-74998600D03*
%TO.P,U4,4,IO5*%
%TO.N,unconnected-(U4-IO5-Pad4)*%
X122607600Y-76498600D03*
%TO.P,U4,5,IO6*%
%TO.N,unconnected-(U4-IO6-Pad5)*%
X122607600Y-77998600D03*
%TO.P,U4,6,IO7*%
%TO.N,unconnected-(U4-IO7-Pad6)*%
X122607600Y-79498600D03*
%TO.P,U4,7,IO8*%
%TO.N,unconnected-(U4-IO8-Pad7)*%
X122607600Y-80998600D03*
%TO.P,U4,8,IO9*%
%TO.N,Net-(U4-IO9)*%
X122607600Y-82498600D03*
%TO.P,U4,9,GND*%
%TO.N,Net-(J1-GND)*%
X122607600Y-83998600D03*
%TO.P,U4,10,IO10*%
%TO.N,unconnected-(U4-IO10-Pad10)*%
X140107600Y-83998600D03*
%TO.P,U4,11,IO20/RXD*%
%TO.N,Net-(U4-IO20{slash}RXD)*%
X140107600Y-82498600D03*
%TO.P,U4,12,IO21/TXD*%
%TO.N,Net-(U4-IO21{slash}TXD)*%
X140107600Y-80998600D03*
%TO.P,U4,13,IO18*%
%TO.N,unconnected-(U4-IO18-Pad13)*%
X140107600Y-79498600D03*
%TO.P,U4,14,IO19*%
%TO.N,unconnected-(U4-IO19-Pad14)*%
X140107600Y-77998600D03*
%TO.P,U4,15,IO3*%
%TO.N,unconnected-(U4-IO3-Pad15)*%
X140107600Y-76498600D03*
%TO.P,U4,16,IO2*%
%TO.N,unconnected-(U4-IO2-Pad16)*%
X140107600Y-74998600D03*
%TO.P,U4,17,IO1*%
%TO.N,Net-(U4-IO1)*%
X140107600Y-73498600D03*
%TO.P,U4,18,IO0*%
%TO.N,Net-(J2-Pin_2)*%
X140107600Y-71998600D03*
D26*
%TO.P,U4,19,GND*%
%TO.N,Net-(J1-GND)*%
X131217600Y-77648600D03*
X131217600Y-78748600D03*
X131767600Y-77098600D03*
X131767600Y-78198600D03*
X131767600Y-79298600D03*
X132317600Y-77648600D03*
D27*
X132317600Y-78198600D03*
D26*
X132317600Y-78748600D03*
X132867600Y-77098600D03*
X132867600Y-78198600D03*
X132867600Y-79298600D03*
X133417600Y-77648600D03*
X133417600Y-78748600D03*
%TD*%
D28*
%TO.P,J1,1,VBUS*%
%TO.N,Net-(D1-K)*%
X123635800Y-96730800D03*
%TO.P,J1,2,D-*%
%TO.N,Net-(J1-D-)*%
X122985800Y-96730800D03*
%TO.P,J1,3,D+*%
%TO.N,Net-(J1-D+)*%
X122335800Y-96730800D03*
%TO.P,J1,4,ID*%
%TO.N,unconnected-(J1-ID-Pad4)*%
X121685800Y-96730800D03*
%TO.P,J1,5,GND*%
%TO.N,Net-(J1-GND)*%
X121035800Y-96730800D03*
D29*
%TO.P,J1,6,Shield*%
X125835800Y-94030800D03*
D30*
X125235800Y-94030800D03*
D31*
X124835800Y-96730800D03*
D32*
X123335800Y-94030800D03*
X121335800Y-94030800D03*
D31*
X119835800Y-96730800D03*
D30*
X119435800Y-94030800D03*
D29*
X118835800Y-94030800D03*
%TD*%
D33*
%TO.N,Net-(U4-EN)*%
X122631200Y-73482200D03*
%TO.N,Net-(J2-Pin_1)*%
X118084600Y-72440800D03*
X117830600Y-78917800D03*
X122607600Y-71998600D03*
%TO.N,Net-(J1-GND)*%
X127584200Y-80619600D03*
X120985798Y-96730800D03*
X121361200Y-94386400D03*
X120116600Y-72618600D03*
X122607600Y-83998600D03*
X129353558Y-78850242D03*
%TO.N,Net-(J2-Pin_2)*%
X140208000Y-72148600D03*
%TO.N,Net-(U4-IO20{slash}RXD)*%
X128857237Y-88937923D03*
X140107600Y-82498600D03*
%TO.N,Net-(U4-IO21{slash}TXD)*%
X140107600Y-80998600D03*
X128258094Y-88407799D03*
%TO.N,Net-(D1-K)*%
X123686887Y-97155800D03*
X138328400Y-89680000D03*
X144881600Y-95072200D03*
%TD*%
D34*
%TO.N,Net-(J1-GND)*%
X117327200Y-92862400D02*
X117667400Y-92862400D01*
X117667400Y-92862400D02*
X118835800Y-94030800D01*
%TO.N,Net-(R1-Pad1)*%
X116687200Y-92862400D02*
X116687200Y-89941800D01*
X116687200Y-89941800D02*
X116785757Y-89843243D01*
%TO.N,Net-(U5-~{RTS})*%
X130648200Y-87807800D02*
X126822200Y-87807800D01*
X130695400Y-87855000D02*
X130648200Y-87807800D01*
X126822200Y-87807800D02*
X125780800Y-88849200D01*
%TO.N,Net-(U4-IO9)*%
X123061570Y-82498600D02*
X122607600Y-82498600D01*
X125780800Y-85217830D02*
X123061570Y-82498600D01*
X125780800Y-86349200D02*
X125780800Y-85217830D01*
%TO.N,Net-(U5-~{DTR})*%
X130570400Y-89980000D02*
X124600200Y-89980000D01*
X124600200Y-89980000D02*
X123393200Y-88773000D01*
X130695400Y-89855000D02*
X130570400Y-89980000D01*
%TO.N,Net-(U4-EN)*%
X122614800Y-73498600D02*
X122631200Y-73482200D01*
X122607600Y-73498600D02*
X122614800Y-73498600D01*
%TO.N,Net-(J2-Pin_1)*%
X122407000Y-71798000D02*
X122607600Y-71998600D01*
X142756200Y-86590800D02*
X143481200Y-87315800D01*
X117907200Y-72618200D02*
X118084600Y-72440800D01*
X122159000Y-71998600D02*
X122607600Y-71998600D01*
X117843900Y-78918200D02*
X117831000Y-78918200D01*
X117843900Y-72618200D02*
X117907200Y-72618200D01*
X123357600Y-72748600D02*
X143386000Y-72748600D01*
X117831000Y-78918200D02*
X117830600Y-78917800D01*
X142756200Y-75353600D02*
X142756200Y-86590800D01*
X122607600Y-71998600D02*
X123357600Y-72748600D01*
X144373600Y-73736200D02*
X142756200Y-75353600D01*
X143386000Y-72748600D02*
X144373600Y-73736200D01*
%TO.N,Net-(J1-GND)*%
X132931014Y-90105000D02*
X132645400Y-90390614D01*
X132317600Y-78748600D02*
X132317600Y-78198600D01*
X135070400Y-90280000D02*
X142517000Y-90280000D01*
X121005600Y-94030800D02*
X119435800Y-94030800D01*
X134859786Y-90105000D02*
X132931014Y-90105000D01*
X125835800Y-94030800D02*
X121335800Y-94030800D01*
X132645400Y-90390614D02*
X132645400Y-90805000D01*
X135070400Y-90280000D02*
X127584200Y-82793800D01*
X135070400Y-90906600D02*
X135070400Y-90315614D01*
X122428800Y-83998600D02*
X122607600Y-83998600D01*
X144373600Y-81356200D02*
X143981200Y-81748600D01*
X122607600Y-83998600D02*
X122307600Y-83998600D01*
X127584200Y-82793800D02*
X127584200Y-80619600D01*
X144373600Y-89024440D02*
X144082240Y-89315800D01*
X120117000Y-72618200D02*
X120116600Y-72618600D01*
X122607600Y-84021400D02*
X122607600Y-83998600D01*
X120143900Y-72618200D02*
X120117000Y-72618200D01*
X118835800Y-91327600D02*
X117068600Y-89560400D01*
X133284000Y-89829600D02*
X132826800Y-89829600D01*
X130005200Y-78198600D02*
X129353558Y-78850242D01*
X121335800Y-94361000D02*
X121361200Y-94386400D01*
X133145400Y-88355000D02*
X133145400Y-88319386D01*
X133145400Y-88355000D02*
X135070400Y-90280000D01*
X132645400Y-88855000D02*
X133145400Y-88355000D01*
X117068600Y-89560400D02*
X122607600Y-84021400D01*
X121361200Y-94386400D02*
X121005600Y-94030800D01*
X132317600Y-78198600D02*
X130005200Y-78198600D01*
X135070400Y-90315614D02*
X134859786Y-90105000D01*
X135106200Y-90942400D02*
X135070400Y-90906600D01*
X132645400Y-90805000D02*
X132645400Y-88855000D01*
X118835800Y-94030800D02*
X118835800Y-91327600D01*
X144373600Y-81356200D02*
X144373600Y-89024440D01*
X135070400Y-91294386D02*
X135070400Y-90906600D01*
X125835800Y-95730800D02*
X124835800Y-96730800D01*
X142517000Y-90280000D02*
X143481200Y-89315800D01*
X121335800Y-94030800D02*
X121335800Y-94361000D01*
X144082240Y-89315800D02*
X143481200Y-89315800D01*
X135106200Y-96723800D02*
X135106200Y-90942400D01*
X125835800Y-94030800D02*
X125835800Y-95730800D01*
X133526800Y-89586800D02*
X133284000Y-89829600D01*
%TO.N,Net-(J2-Pin_2)*%
X140107600Y-72048200D02*
X140208000Y-72148600D01*
X140107600Y-71998600D02*
X140107600Y-72048200D01*
%TO.N,Net-(U4-IO1)*%
X118498494Y-71318200D02*
X118893900Y-71713606D01*
X127407600Y-73498600D02*
X140107600Y-73498600D01*
X118893900Y-71713606D02*
X118893900Y-74584900D01*
X117068600Y-81960400D02*
X114493900Y-79385700D01*
X118893900Y-74584900D02*
X121557600Y-77248600D01*
X121557600Y-77248600D02*
X123657600Y-77248600D01*
X114889306Y-71318200D02*
X118498494Y-71318200D01*
X114493900Y-79385700D02*
X114493900Y-71713606D01*
X123657600Y-77248600D02*
X127407600Y-73498600D01*
X114493900Y-71713606D02*
X114889306Y-71318200D01*
%TO.N,Net-(U3-DATA)*%
X145457600Y-71057178D02*
X145399022Y-70998600D01*
X144373600Y-76276200D02*
X143846000Y-75748600D01*
X121193900Y-74026100D02*
X122166400Y-74998600D01*
X145399022Y-70998600D02*
X121908906Y-70998600D01*
X122166400Y-74998600D02*
X122607600Y-74998600D01*
X144373600Y-76276200D02*
X145457600Y-75192200D01*
X121193900Y-71713606D02*
X121193900Y-74026100D01*
X145457600Y-75192200D02*
X145457600Y-71057178D01*
X121908906Y-70998600D02*
X121193900Y-71713606D01*
%TO.N,Net-(U4-IO20{slash}RXD)*%
X130695400Y-88855000D02*
X128860000Y-88855000D01*
X128860000Y-88855000D02*
X128857237Y-88857763D01*
X140107600Y-82498600D02*
X140407600Y-82498600D01*
X128857237Y-88857763D02*
X128857237Y-88937923D01*
%TO.N,Net-(U4-IO21{slash}TXD)*%
X130656200Y-88315800D02*
X128905000Y-88315800D01*
X140107600Y-80998600D02*
X140407600Y-80998600D01*
X130695400Y-88355000D02*
X130656200Y-88315800D01*
X128350093Y-88315800D02*
X128258094Y-88407799D01*
X128905000Y-88315800D02*
X128350093Y-88315800D01*
X128905000Y-88315800D02*
X129006600Y-88315800D01*
%TO.N,Net-(D1-K)*%
X144812000Y-95046800D02*
X144856200Y-95046800D01*
X134859786Y-85205000D02*
X136295400Y-86640614D01*
X136295400Y-89569386D02*
X136009786Y-89855000D01*
X136009786Y-89855000D02*
X135595400Y-89855000D01*
X121674300Y-78748600D02*
X115543900Y-72618200D01*
X138379200Y-89865200D02*
X138328400Y-89814400D01*
X144856200Y-95046800D02*
X144881600Y-95072200D01*
X138328400Y-89814400D02*
X138328400Y-89680000D01*
X136295400Y-86640614D02*
X128403386Y-78748600D01*
X138083386Y-89569386D02*
X138379200Y-89865200D01*
X128403386Y-78748600D02*
X121674300Y-78748600D01*
X136295400Y-89569386D02*
X138083386Y-89569386D01*
X136295400Y-86640614D02*
X136295400Y-89569386D01*
%TO.N,Net-(J1-D+)*%
X133145400Y-90805000D02*
X133145400Y-91219386D01*
X122485800Y-97755800D02*
X122335800Y-97605800D01*
X133145400Y-91219386D02*
X126608986Y-97755800D01*
X122335800Y-97605800D02*
X122335800Y-96730800D01*
X126608986Y-97755800D02*
X122485800Y-97755800D01*
%TO.N,Net-(J1-D-)*%
X133645400Y-91285072D02*
X126774672Y-98155800D01*
X126774672Y-98155800D02*
X119811231Y-98155800D01*
X122985800Y-95855800D02*
X122985800Y-96730800D01*
X118810800Y-97155369D02*
X118810800Y-96306231D01*
X118810800Y-96306231D02*
X119411231Y-95705800D01*
X119811231Y-98155800D02*
X118810800Y-97155369D01*
X133645400Y-90805000D02*
X133645400Y-91285072D01*
X122835800Y-95705800D02*
X122985800Y-95855800D01*
X119411231Y-95705800D02*
X122835800Y-95705800D01*
%TO.N,Net-(D1-A)*%
X147135000Y-96723800D02*
X148812000Y-95046800D01*
X141406200Y-96723800D02*
X147135000Y-96723800D01*
%TD*%
M02*
