M48
; DRILL file {KiCad 8.0.6} date 2025-07-13T00:12:19+0530
; FORMAT={-:-/ absolute / inch / decimal}
; #@! TF.CreationDate,2025-07-13T00:12:19+05:30
; #@! TF.GenerationSoftware,Kicad,Pcbnew,8.0.6
; #@! TF.FileFunction,Plated,1,2,PTH
FMAT,2
INCH
; #@! TA.AperFunction,Plated,PTH,ComponentDrill
T1C0.0079
; #@! TA.AperFunction,Plated,PTH,ViaDrill
T2C0.0118
; #@! TA.AperFunction,Plated,PTH,ComponentDrill
T3C0.0197
; #@! TA.AperFunction,Plated,PTH,ComponentDrill
T4C0.0236
; #@! TA.AperFunction,Plated,PTH,ComponentDrill
T5C0.0315
; #@! TA.AperFunction,Plated,PTH,ComponentDrill
T6C0.0335
; #@! TA.AperFunction,Plated,PTH,ComponentDrill
T7C0.0394
%
G90
G05
T1
X5.166Y-3.057
X5.166Y-3.1003
X5.1877Y-3.0354
X5.1877Y-3.0787
X5.1877Y-3.122
X5.2094Y-3.057
X5.2094Y-3.1003
X5.231Y-3.0354
X5.231Y-3.0787
X5.231Y-3.122
X5.2527Y-3.057
X5.2527Y-3.1003
T2
X4.639Y-3.107
X4.649Y-2.852
X4.729Y-2.859
X4.7632Y-3.8083
X4.778Y-3.716
X4.8271Y-2.8346
X4.8271Y-3.307
X4.828Y-2.893
X4.8696Y-3.825
X5.023Y-3.174
X5.0495Y-3.4806
X5.0731Y-3.5015
X5.0927Y-3.1043
X5.446Y-3.5307
X5.516Y-3.1889
X5.516Y-3.248
X5.52Y-2.8405
X5.704Y-3.743
T3
X5.6489Y-3.4376
X5.6489Y-3.477
X5.6489Y-3.5164
T5
X4.609Y-3.2268
X4.609Y-3.526
X4.858Y-3.3966
X4.858Y-3.495
X4.952Y-3.3996
X4.952Y-3.498
X5.684Y-2.903
X5.684Y-3.003
X5.684Y-3.103
X5.684Y-3.203
T6
X4.7179Y-3.8083
X4.9148Y-3.8083
T4
G00X4.6786Y-3.7158
M15
G01X4.6786Y-3.6882
M16
G05
G00X4.9542Y-3.6882
M15
G01X4.9542Y-3.7158
M16
G05
T7
G00X5.3191Y-3.7647
M15
G01X5.3191Y-3.8513
M16
G05
G00X5.4963Y-3.997
M15
G01X5.4097Y-3.997
M16
G05
G00X5.5672Y-3.7568
M15
G01X5.5672Y-3.8592
M16
G05
M30
